<svg width="88" height="88" viewBox="0 0 88 88" fill="none" xmlns="http://www.w3.org/2000/svg">
<g filter="url(#filter0_d_232_278)">
<circle cx="44" cy="40" r="40" fill="url(#paint0_linear_232_278)"/>
<circle cx="44" cy="40" r="39.5" stroke="black"/>
</g>
<path d="M44.3675 36.8005C44.1282 36.7801 43.862 36.7807 43.6133 36.8006C38.8824 36.6186 35.13 32.7353 35.13 27.9534C35.13 23.0582 39.0853 19.0834 44 19.0834C48.8935 19.0834 52.8691 23.0583 52.87 27.9516C52.8494 32.7351 49.0963 36.6173 44.3675 36.8005Z" fill="#442ED0" stroke="#232425" stroke-width="1.5" stroke-linecap="round" stroke-linejoin="round"/>
<path d="M54.7851 46.1704L54.7862 46.1712C57.2513 47.8112 58.3841 49.901 58.3841 51.8978C58.3841 53.895 57.2508 55.9908 54.7844 57.6418C51.9545 59.5353 48.1758 60.5051 44.3575 60.5051C40.5391 60.5051 36.7603 59.5352 33.9304 57.6417L33.9287 57.6406C31.4636 56.0006 30.3308 53.9108 30.3308 51.914C30.3308 49.9172 31.4638 47.8218 33.9291 46.1709C36.7705 44.2874 40.5553 43.323 44.3737 43.323C48.193 43.323 51.9663 44.2878 54.7851 46.1704Z" fill="#16F0D3" stroke="#232425" stroke-width="1.5" stroke-linecap="round" stroke-linejoin="round"/>
<defs>
<filter id="filter0_d_232_278" x="0" y="0" width="88" height="88" filterUnits="userSpaceOnUse" color-interpolation-filters="sRGB">
<feFlood flood-opacity="0" result="BackgroundImageFix"/>
<feColorMatrix in="SourceAlpha" type="matrix" values="0 0 0 0 0 0 0 0 0 0 0 0 0 0 0 0 0 0 127 0" result="hardAlpha"/>
<feOffset dy="4"/>
<feGaussianBlur stdDeviation="2"/>
<feComposite in2="hardAlpha" operator="out"/>
<feColorMatrix type="matrix" values="0 0 0 0 0 0 0 0 0 0 0 0 0 0 0 0 0 0 0.09 0"/>
<feBlend mode="normal" in2="BackgroundImageFix" result="effect1_dropShadow_232_278"/>
<feBlend mode="normal" in="SourceGraphic" in2="effect1_dropShadow_232_278" result="shape"/>
</filter>
<linearGradient id="paint0_linear_232_278" x1="44" y1="0" x2="44" y2="80" gradientUnits="userSpaceOnUse">
<stop stop-color="#2B1983"/>
<stop offset="1" stop-color="#16F0D3"/>
</linearGradient>
</defs>
</svg>
