<svg width="76" height="103" viewBox="0 0 76 103" fill="none" xmlns="http://www.w3.org/2000/svg">
<path fill-rule="evenodd" clip-rule="evenodd" d="M54.3134 21.0744C56.3735 20.9054 59.9894 26.2478 60.9586 27.8571C62.8993 31.079 63.9024 34.3083 64.3083 38.0407C64.681 41.4682 62.9084 45.2404 60.0812 47.2087C57.2227 49.1986 53 50.5424 49.5557 49.5882C42.6578 47.677 39.8664 39.2742 39.2219 32.9124C39.0796 31.5075 39.111 28.0531 39.8379 26.8434C40.33 26.0243 43.4512 25.1281 44.486 24.757C45.7812 24.2924 53.7583 21.1204 54.3138 21.075L54.3134 21.0744ZM20.6005 20.9926C20.887 20.9738 29.4606 24.2028 30.4304 24.5905C31.3824 24.9711 34.7152 26.0271 35.255 26.5412C36.1891 27.4308 36.0766 31.1156 36.0145 32.3939C35.707 38.7294 32.7805 47.3742 26.0679 49.4797C22.627 50.559 18.3905 49.3522 15.4662 47.3914C12.1717 45.1824 10.9651 42.2954 11.0372 38.3921C11.136 33.0588 13.5581 28.0854 16.9066 24.0332C17.5075 23.3063 19.692 21.0518 20.6005 20.9926ZM37.6436 26.3566C37.0985 25.588 37.0972 24.8592 36.1603 24.4526C35.4857 24.1598 34.4297 23.8266 33.7015 23.5645C30.4333 22.3884 27.2058 21.1345 23.9298 19.9487C21.8233 19.1864 21.1183 18.251 19.0971 19.4259C14.1095 22.3248 9.78085 30.516 9.02133 36.1032C8.52417 39.7607 9.14671 43.7518 11.6294 46.6156C12.5162 47.6384 14.0816 49.0613 15.2988 49.6399C16.1865 50.0618 16.9752 50.2619 16.6589 51.3361C16.4956 51.8906 15.8098 53.1934 15.6985 53.7219C15.6395 54.0012 13.9967 58.4665 13.9014 58.6182C13.4591 59.3223 12.4525 63.1014 11.9334 63.3384C11.5178 63.5284 7.59348 61.4748 7.01733 61.7723C6.91953 61.8228 6.44808 62.6801 6.39604 62.8296C6.16753 63.4873 6.62582 63.4973 7.04586 63.77C7.50195 64.0666 8.96458 64.3901 9.51973 64.6431C10.158 64.9336 11.2563 65.4393 11.9231 65.5866C12.4525 65.7035 13.7788 66.417 14.3042 66.5524C15.5066 66.8624 18.6356 68.8501 18.5498 66.2957C18.5234 65.5079 14.1327 64.5876 14.1271 64.0688C14.1208 63.4873 15.5803 59.9856 15.8718 59.1188C16.3859 57.5907 17.0837 55.7469 17.7031 54.2567C18.9206 51.327 17.8724 51.1421 21.0171 51.6731C24.983 52.3426 28.013 51.5355 31.1097 48.9701C33.4056 47.0683 35.3691 43.6333 36.3866 40.86C36.6872 40.041 37.0016 39.1507 37.1722 38.3019C37.2606 37.8614 37.4342 37.4589 37.5668 37.0323C37.8624 36.08 37.9655 37.4846 37.9903 37.7232C38.064 38.4285 39.3344 42.1054 39.7178 42.6894C40.1501 43.3487 40.3354 44.1565 40.8814 44.8727C41.2977 45.4188 41.7582 46.2194 42.2381 46.8629C43.0421 47.9409 44.5465 49.4293 45.7166 50.0782C47.6567 51.154 48.3924 51.4938 50.6446 51.8436C51.7198 52.0107 52.6101 52.0417 53.6746 51.7806C53.9012 51.7248 56.4262 51.253 56.4804 51.248L61.3222 64.2033L58.1603 65.4089C57.8754 65.4634 56.8644 65.8662 56.718 66.0925C56.5754 66.3132 57.1077 67.3953 57.2133 67.5194C57.7628 68.1667 62.4601 65.8571 63.3961 65.6242C64.3842 65.3785 65.6258 64.6938 66.4875 64.5117C66.9734 64.4089 69.3868 63.6484 68.9517 62.9707C68.5511 62.3469 68.8457 61.7692 68.0288 61.7595C67.1571 61.7495 67.1358 62.0908 66.4449 62.2648C65.7659 62.4356 63.7842 63.3312 63.3353 63.3146C62.9479 62.892 60.4499 55.9952 60.0235 54.8717C57.7381 48.8469 57.8923 51.6101 61.9247 48.3162C67.2157 43.9944 67.2671 36.8972 64.8108 30.9833C63.6362 28.1556 62.4125 25.9334 60.5323 23.5069C59.3164 21.9377 56.0109 18.2804 53.8316 19.0343C51.0183 20.0076 48.0767 21.1816 45.2681 22.2311C43.8386 22.7652 42.4061 23.2743 40.9795 23.8197C39.6257 24.3369 38.8693 24.2313 38.1571 25.4052C38.0163 25.6375 37.8583 26.1751 37.6439 26.3553L37.6436 26.3566Z" fill="black"/>
<path fill-rule="evenodd" clip-rule="evenodd" d="M60.2317 33.1964C55.6595 33.5052 51.2214 35.449 47.1301 37.4414C45.6555 38.1595 42.3362 39.6131 43.155 41.6826C43.8434 43.4232 45.4756 45.484 47.0595 46.4908C51.1857 49.1136 56.3563 47.9538 59.9051 44.8696C61.7266 43.2866 62.3833 41.3572 62.8018 39.0711C63.0175 37.8934 62.6984 36.4445 62.4426 35.2722C62.1109 33.7512 61.9272 33.082 60.2317 33.1964Z" fill="red"/>
<path fill-rule="evenodd" clip-rule="evenodd" d="M14.6007 33.1964C13.075 33.2597 13.0995 34.3418 12.7409 35.6603C12.5039 36.5317 12.4728 38.7896 12.5907 39.6955C12.8556 41.7262 14.1712 43.9016 15.7812 45.158C19.3697 47.9591 24.7714 49.2691 28.6518 46.2272C29.9104 45.2404 31.9968 42.7725 32.3262 41.218C32.6745 39.5751 29.0489 37.8389 27.7951 37.2662C24.1921 35.6205 18.5406 33.0325 14.6003 33.1961L14.6007 33.1964Z" fill="red"/>
<path fill-rule="evenodd" clip-rule="evenodd" d="M52.1966 7.83381C51.5803 7.88428 48.2049 11.565 47.5209 12.2415C46.7661 12.9881 45.9639 13.7643 45.2414 14.5332C44.8612 14.9379 44.1932 15.2924 44.3236 15.8723C44.3844 16.1422 45.2436 16.9224 45.5404 16.9303C46.0313 16.9431 49.5406 13.1245 50.2167 12.5292C50.8054 12.0107 51.9885 10.8277 52.4956 10.2368C52.8057 9.87573 53.4943 9.48955 53.3501 8.93973C53.2636 8.60933 52.5458 7.80528 52.1963 7.83381H52.1966Z" fill="red"/>
<path fill-rule="evenodd" clip-rule="evenodd" d="M23.3906 7.99404C23.1364 8.04388 22.3455 8.88961 22.3085 9.14257C22.2408 9.60525 22.9336 10.115 23.2439 10.4312C23.9896 11.1917 24.7489 11.95 25.5074 12.6979C26.1548 13.3361 29.5919 17.135 30.2029 16.9993C30.5088 16.9313 31.3273 16.1956 31.332 15.895C31.3407 15.3514 30.7301 14.9464 30.3621 14.5778C29.6101 13.8248 28.8383 13.0738 28.0976 12.3117C27.4616 11.6572 24.0185 7.87054 23.3903 7.99404H23.3906Z" fill="red"/>
<path fill-rule="evenodd" clip-rule="evenodd" d="M37.0487 0.0952891C36.1688 0.239797 36.5587 2.17136 36.5587 2.87071L36.5594 9.56447C36.5788 11.1211 36.3032 11.1895 38.1477 11.1447C39.0201 11.1237 38.6405 9.00556 38.6405 8.3805L38.6408 1.688C38.6361 0.182419 38.8887 -0.207214 37.0487 0.0949676V0.0952891Z" fill="red"/>
<path d="M25.0078 83.6489C24.5933 84.0995 23.9084 84.5051 22.9531 84.8655C21.9979 85.208 21.2319 85.3792 20.6551 85.3792C20.0964 85.3792 19.6818 85.3612 19.4115 85.3251C18.9609 87.9926 17.8074 90.2186 15.9509 92.0029C14.1125 93.7873 11.9677 94.6794 9.5165 94.6794C7.0833 94.6794 5.24489 93.9224 4.00125 92.4084C2.77564 90.8945 2.16284 88.9209 2.16284 86.4877C2.16284 84.9016 2.40616 83.3606 2.8928 81.8646C3.37944 80.3506 4.04631 79.0078 4.89343 77.8363C5.75856 76.6648 6.83998 75.7275 8.13769 75.0246C9.43539 74.3037 10.7872 73.9432 12.193 73.9432C13.6169 73.9432 14.7794 74.2676 15.6806 74.9165C16.5998 75.5473 17.0594 76.4305 17.0594 77.566C17.0594 78.4311 16.753 79.2061 16.1402 79.891C15.5454 80.5579 14.7163 80.8913 13.6529 80.8913C13.0942 80.8913 12.5985 80.7561 12.166 80.4858C11.7334 80.1974 11.5171 79.7468 11.5171 79.134C11.5171 78.8456 11.5892 78.5933 11.7334 78.377C11.8776 78.1607 12.0218 78.0256 12.166 77.9715L12.4093 77.8633C12.4093 78.5843 12.6977 78.9448 13.2744 78.9448C13.5448 78.9448 13.7791 78.8546 13.9774 78.6744C14.1756 78.4761 14.2838 78.2599 14.3018 78.0256C14.3198 77.7912 14.3108 77.611 14.2747 77.4848C14.2387 77.3407 14.1666 77.1784 14.0585 76.9982C13.8061 76.5476 13.2744 76.3223 12.4634 76.3223C11.4 76.3223 10.3906 76.827 9.43539 77.8363C8.48014 78.8456 7.71413 80.1433 7.13737 81.7294C6.57864 83.3155 6.29927 84.9376 6.29927 86.5958C6.29927 87.9836 6.52457 89.2183 6.97516 90.2997C7.22749 90.8764 7.59698 91.336 8.08362 91.6785C8.57025 92.0029 9.15602 92.1651 9.84092 92.1651C10.9764 92.1651 11.9857 91.6875 12.8689 90.7322C13.7701 89.777 14.4279 88.6235 14.8425 87.2717C15.2751 85.9199 15.4913 84.5501 15.4913 83.1623V82.8379C15.4373 82.6396 15.4102 82.4504 15.4102 82.2701C15.4102 81.405 15.7166 80.7471 16.3294 80.2965C16.726 80.0082 17.2216 79.864 17.8164 79.864C17.9786 79.864 18.24 79.891 18.6004 79.9451C18.9609 79.9991 19.2132 80.0803 19.3574 80.1884C18.9789 80.2064 18.6815 80.3326 18.4652 80.5669C18.267 80.8012 18.1679 81.1166 18.1679 81.5131C18.1679 81.9097 18.3481 82.2791 18.7086 82.6216C19.2132 83.1082 19.9973 83.3516 21.0607 83.3516C22.1421 83.3516 23.2595 82.91 24.4131 82.0268L25.0078 83.6489ZM33.1474 81.7835C32.4085 87.6232 32.039 90.7322 32.039 91.1107C32.039 91.8317 32.3003 92.1922 32.823 92.1922C33.2916 92.1922 33.7963 91.8767 34.337 91.2459C34.8957 90.5971 35.3373 89.6328 35.6617 88.3531C36.2565 89.002 36.617 89.5066 36.7431 89.8671C36.3286 91.6154 35.6707 92.85 34.7696 93.571C33.8684 94.2919 32.9402 94.6524 31.9849 94.6524C30.4168 94.6524 29.3625 94.0486 28.8217 92.841C27.8845 94.0486 26.6319 94.6524 25.0638 94.6524C23.7661 94.6524 22.7658 94.328 22.0629 93.6791C21.3599 93.0303 21.0085 92.1831 21.0085 91.1378C21.0085 90.8854 21.0535 90.4439 21.1437 89.813C21.5582 86.4606 21.8736 83.7931 22.0899 81.8105C22.6486 81.6123 23.1623 81.5131 23.6309 81.5131C24.0995 81.5131 24.451 81.5312 24.6853 81.5672C24.9196 81.6033 25.1449 81.7384 25.3612 81.9727C25.5775 82.207 25.6856 82.5405 25.6856 82.9731L24.7935 89.8671C24.7574 90.0834 24.7394 90.2817 24.7394 90.4619C24.7394 91.5253 25.226 92.057 26.1993 92.057C27.1005 92.057 27.8485 91.6154 28.4432 90.7322C28.4432 90.534 28.4613 90.2186 28.4973 89.786L29.3895 82.5946C29.5157 82.2882 29.786 82.0358 30.2006 81.8376C30.6151 81.6213 31.1288 81.5131 31.7416 81.5131C32.3724 81.5131 32.841 81.6033 33.1474 81.7835ZM40.9022 75.7005C40.9022 75.8086 40.6589 77.7462 40.1722 81.5131H44.1464V83.5949H39.9019L39.8208 84.2708C41.9295 86.0371 42.9839 87.9656 42.9839 90.0564C42.9839 91.6965 42.5604 92.8771 41.7132 93.598C40.8841 94.319 39.8838 94.6794 38.7123 94.6794C37.5408 94.6794 36.6846 94.373 36.1439 93.7602C35.6032 93.1294 35.3329 92.3724 35.3329 91.4892C35.3329 91.291 35.3509 91.0747 35.3869 90.8404L36.225 83.6489L36.1169 83.5949H33.927C33.909 83.4146 33.9 83.1263 33.9 82.7297C33.9 82.3152 33.9811 81.9097 34.1433 81.5131H36.4684L37.3335 74.1595C37.712 74.0153 38.2166 73.9432 38.8475 73.9432C40.2173 73.9432 40.9022 74.529 40.9022 75.7005ZM41.1725 90.0293C41.1725 88.7857 40.6318 87.5601 39.5504 86.3525C39.226 89.038 39.0638 90.5881 39.0638 91.0026C39.0638 91.8137 39.3251 92.2192 39.8478 92.2192C40.2263 92.2192 40.5417 92.048 40.794 91.7055C41.0464 91.345 41.1725 90.7863 41.1725 90.0293ZM48.7357 102.547C47.7084 102.547 46.8252 102.231 46.0862 101.601C45.3473 100.988 44.9778 100.087 44.9778 98.897C44.9778 97.437 45.7167 96.0132 47.1947 94.6254C46.1493 94.5352 45.3112 94.1928 44.6804 93.598C44.0496 93.0032 43.7341 92.1651 43.7341 91.0837C43.7341 90.579 43.7972 89.822 43.9234 88.8127C44.0496 87.8034 44.1847 86.713 44.3289 85.5414C44.4731 84.3699 44.6263 83.1263 44.7885 81.8105C45.3473 81.6123 45.8609 81.5131 46.3296 81.5131C46.7982 81.5131 47.1496 81.5312 47.3839 81.5672C47.6182 81.6033 47.8435 81.7384 48.0598 81.9727C48.2761 82.207 48.3843 82.5405 48.3843 82.9731L47.4921 89.8671C47.456 90.1555 47.438 90.3537 47.438 90.4619C47.438 91.5253 47.9246 92.057 48.8979 92.057C49.7811 92.057 50.502 91.6424 51.0608 90.8133C51.1148 90.3988 51.25 89.2092 51.4663 87.2447C51.6826 85.2621 51.8628 83.721 52.007 82.6216C52.1692 82.2791 52.5027 82.0088 53.0073 81.8105C53.53 81.6123 53.9536 81.5131 54.278 81.5131C54.8547 81.5131 55.3774 81.5852 55.8461 81.7294L54.5754 91.7055C56.6842 92.084 57.9458 93.5349 58.3604 96.0582C58.2883 96.4007 57.9458 96.9414 57.333 97.6804C56.9725 95.4274 55.9812 94.0576 54.3591 93.571L53.9265 96.9504C53.7283 98.5725 53.2146 99.9063 52.3855 100.952C51.5564 102.015 50.3398 102.547 48.7357 102.547ZM47.0865 98.3833C47.0865 98.9781 47.2307 99.4196 47.5191 99.708C47.8075 99.9964 48.186 100.141 48.6546 100.141C49.1412 100.141 49.5107 99.9423 49.7631 99.5458C50.0154 99.1493 50.2137 98.3563 50.3578 97.1667L50.7093 94.1928C48.3482 95.4184 47.1406 96.8152 47.0865 98.3833ZM64.9388 91.4892L65.5877 85.4603C65.5877 84.9737 65.4615 84.5681 65.2092 84.2437C64.9569 83.9193 64.5333 83.7571 63.9385 83.7571C63.3618 83.7571 62.8661 84.0184 62.4516 84.5411C62.0551 85.0458 61.8027 85.6856 61.6946 86.4606C61.0457 91.3991 60.7033 94.0846 60.6672 94.5172H57.0174L58.5044 81.7835C59.2614 81.5852 59.8381 81.4861 60.2347 81.4861C61.4423 81.4861 62.0731 81.9277 62.1272 82.8108C63.0103 81.9457 64.0647 81.5131 65.2903 81.5131C66.5339 81.5131 67.5072 81.8195 68.2101 82.4323C68.9131 83.0451 69.2645 83.8202 69.2645 84.7574C69.2645 85.0097 69.2105 85.4874 69.1023 86.1903C68.6878 88.9299 68.4805 90.525 68.4805 90.9756C68.4805 91.8046 68.7599 92.2192 69.3186 92.2192C70.5442 92.2192 71.4724 90.9395 72.1033 88.3802C72.7161 89.029 73.0855 89.5427 73.2117 89.9212C72.2565 93.0933 70.5983 94.6794 68.2372 94.6794C67.1197 94.6794 66.2906 94.337 65.7499 93.6521C65.2092 92.9672 64.9388 92.2462 64.9388 91.4892Z" fill="black"/>
</svg>
