<svg width="209" height="285" viewBox="0 0 209 285" fill="none" xmlns="http://www.w3.org/2000/svg">
<path fill-rule="evenodd" clip-rule="evenodd" d="M150.672 58.463C156.387 57.9943 166.418 72.8148 169.107 77.2793C174.491 86.217 177.273 95.1756 178.399 105.53C179.433 115.038 174.516 125.503 166.673 130.963C158.743 136.483 147.029 140.211 137.474 137.564C118.338 132.262 110.594 108.952 108.807 91.3033C108.412 87.4057 108.499 77.8228 110.515 74.467C111.881 72.1948 120.539 69.7086 123.41 68.679C127.003 67.3903 149.132 58.5908 150.673 58.4647L150.672 58.463ZM57.1482 58.236C57.943 58.1838 81.7273 67.1415 84.4178 68.2172C87.0588 69.2729 96.3044 72.2026 97.8018 73.6287C100.393 76.0966 100.081 86.3187 99.9089 89.865C99.0558 107.44 90.9372 131.422 72.3157 137.263C62.7701 140.257 51.0175 136.909 42.905 131.47C33.7656 125.342 30.4185 117.333 30.6185 106.505C30.8924 91.7094 37.6118 77.9124 46.9008 66.6711C48.5679 64.6545 54.6281 58.4004 57.1482 58.236ZM104.428 73.1166C102.916 70.9843 102.912 68.9625 100.313 67.8346C98.4418 67.0224 95.5122 66.098 93.4921 65.371C84.4257 62.1083 75.4723 58.6299 66.3841 55.3402C60.5405 53.2254 58.5847 50.6305 52.9776 53.8898C39.1414 61.9318 27.1332 84.6552 25.0262 100.155C23.647 110.301 25.374 121.373 32.2612 129.318C34.7213 132.155 39.0641 136.102 42.4407 137.708C44.9034 138.878 47.0913 139.433 46.2139 142.413C45.7608 143.951 43.8581 147.565 43.5494 149.031C43.3859 149.806 38.8284 162.194 38.564 162.615C37.337 164.568 34.5448 175.051 33.1047 175.709C31.9516 176.236 21.0651 170.539 19.4668 171.364C19.1955 171.504 17.8876 173.883 17.7433 174.298C17.1094 176.122 18.3807 176.15 19.546 176.906C20.8112 177.729 24.8688 178.626 26.4088 179.328C28.1793 180.134 31.2264 181.537 33.076 181.946C34.5447 182.27 38.224 184.249 39.6815 184.625C43.0172 185.485 51.6975 190.999 51.4593 183.913C51.3862 181.727 39.2058 179.174 39.1901 177.735C39.1727 176.122 43.2216 166.408 44.0303 164.003C45.4565 159.764 47.3922 154.649 49.1105 150.515C52.488 142.388 49.5801 141.875 58.3039 143.348C69.306 145.205 77.7115 142.966 86.3023 135.849C92.6712 130.573 98.1183 121.044 100.941 113.351C101.775 111.079 102.647 108.609 103.12 106.254C103.365 105.032 103.847 103.916 104.215 102.732C105.035 100.091 105.321 103.987 105.39 104.649C105.594 106.606 109.119 116.806 110.182 118.426C111.381 120.255 111.895 122.496 113.41 124.483C114.565 125.998 115.842 128.219 117.174 130.004C119.404 132.994 123.578 137.123 126.824 138.923C132.206 141.908 134.247 142.85 140.495 143.821C143.477 144.284 145.947 144.37 148.9 143.646C149.529 143.491 156.533 142.183 156.684 142.169L170.116 178.108L161.344 181.453C160.554 181.604 157.749 182.721 157.343 183.349C156.947 183.961 158.424 186.963 158.717 187.308C160.241 189.103 173.272 182.696 175.869 182.05C178.61 181.368 182.054 179.469 184.445 178.964C185.793 178.679 192.488 176.569 191.281 174.689C190.169 172.958 190.987 171.356 188.721 171.329C186.302 171.301 186.243 172.248 184.327 172.731C182.443 173.204 176.946 175.689 175.7 175.643C174.625 174.471 167.696 155.338 166.513 152.221C160.173 135.508 160.601 143.173 171.787 134.035C186.465 122.046 186.608 102.358 179.793 85.9518C176.535 78.1071 173.14 71.9426 167.924 65.2111C164.551 60.8579 155.381 50.7123 149.336 52.8036C141.531 55.5037 133.371 58.7604 125.579 61.6718C121.614 63.1536 117.64 64.5658 113.682 66.0789C109.927 67.5137 107.828 67.2207 105.853 70.4773C105.462 71.1217 105.024 72.6131 104.429 73.1131L104.428 73.1166Z" fill="white"/>
<path fill-rule="evenodd" clip-rule="evenodd" d="M167.09 92.0911C154.406 92.9477 142.095 98.34 130.745 103.867C126.654 105.859 117.446 109.892 119.717 115.633C121.627 120.462 126.155 126.178 130.549 128.972C141.996 136.247 156.34 133.03 166.184 124.474C171.237 120.083 173.059 114.73 174.22 108.388C174.818 105.121 173.933 101.102 173.224 97.8496C172.304 93.6303 171.794 91.7737 167.09 92.0911Z" fill="#FF8A8A"/>
<path fill-rule="evenodd" clip-rule="evenodd" d="M40.5041 92.0911C36.2718 92.2668 36.3396 95.2686 35.3448 98.9262C34.6874 101.344 34.6013 107.607 34.9283 110.12C35.6631 115.754 39.3128 121.789 43.779 125.274C53.7342 133.045 68.719 136.679 79.4838 128.24C82.9752 125.503 88.7632 118.656 89.6772 114.344C90.6433 109.787 80.5856 104.97 77.1072 103.381C67.112 98.8157 51.4341 91.6363 40.5032 92.0903L40.5041 92.0911Z" fill="#FF8A8A"/>
<path fill-rule="evenodd" clip-rule="evenodd" d="M144.8 21.7321C143.09 21.8721 133.727 32.0829 131.829 33.9595C129.735 36.0309 127.51 38.184 125.505 40.3171C124.451 41.4398 122.598 42.4232 122.959 44.032C123.128 44.7807 125.512 46.9451 126.335 46.9669C127.697 47.0025 137.432 36.4091 139.308 34.7578C140.941 33.3194 144.223 30.0376 145.63 28.3984C146.49 27.3966 148.4 26.3253 148 24.8C147.76 23.8835 145.769 21.6529 144.799 21.7321H144.8Z" fill="#FF8A8A"/>
<path fill-rule="evenodd" clip-rule="evenodd" d="M64.8884 22.1764C64.1832 22.3147 61.9892 24.6609 61.8866 25.3626C61.6987 26.6461 63.6205 28.0601 64.4814 28.9376C66.5502 31.0472 68.6564 33.1507 70.7608 35.2256C72.5565 36.9961 82.0916 47.5347 83.7865 47.1582C84.6352 46.9695 86.9057 44.9286 86.9188 44.0946C86.9431 42.5867 85.2491 41.4632 84.2282 40.4406C82.1421 38.3518 80.0011 36.2682 77.9463 34.1542C76.1818 32.3385 66.6302 21.8338 64.8875 22.1764H64.8884Z" fill="#FF8A8A"/>
<path fill-rule="evenodd" clip-rule="evenodd" d="M102.778 0.264344C100.337 0.665228 101.418 6.02364 101.418 7.96371L101.42 26.5331C101.474 30.8515 100.71 31.0411 105.826 30.9167C108.247 30.8585 107.193 24.9826 107.193 23.2486L107.194 4.68273C107.181 0.506055 107.882 -0.574838 102.778 0.263453V0.264344Z" fill="#FF8A8A"/>
<path d="M69.375 232.474C68.225 233.724 66.325 234.849 63.675 235.849C61.025 236.799 58.9 237.274 57.3 237.274C55.75 237.274 54.6 237.224 53.85 237.124C52.6 244.524 49.4 250.699 44.25 255.649C39.15 260.599 33.2 263.074 26.4 263.074C19.65 263.074 14.55 260.974 11.1 256.774C7.7 252.574 6 247.099 6 240.349C6 235.949 6.675 231.674 8.025 227.524C9.375 223.324 11.225 219.599 13.575 216.349C15.975 213.099 18.975 210.499 22.575 208.549C26.175 206.549 29.925 205.549 33.825 205.549C37.775 205.549 41 206.449 43.5 208.249C46.05 209.999 47.325 212.449 47.325 215.599C47.325 217.999 46.475 220.149 44.775 222.049C43.125 223.899 40.825 224.824 37.875 224.824C36.325 224.824 34.95 224.449 33.75 223.699C32.55 222.899 31.95 221.649 31.95 219.949C31.95 219.149 32.15 218.449 32.55 217.849C32.95 217.249 33.35 216.874 33.75 216.724L34.425 216.424C34.425 218.424 35.225 219.424 36.825 219.424C37.575 219.424 38.225 219.174 38.775 218.674C39.325 218.124 39.625 217.524 39.675 216.874C39.725 216.224 39.7 215.724 39.6 215.374C39.5 214.974 39.3 214.524 39 214.024C38.3 212.774 36.825 212.149 34.575 212.149C31.625 212.149 28.825 213.549 26.175 216.349C23.525 219.149 21.4 222.749 19.8 227.149C18.25 231.549 17.475 236.049 17.475 240.649C17.475 244.499 18.1 247.924 19.35 250.924C20.05 252.524 21.075 253.799 22.425 254.749C23.775 255.649 25.4 256.099 27.3 256.099C30.45 256.099 33.25 254.774 35.7 252.124C38.2 249.474 40.025 246.274 41.175 242.524C42.375 238.774 42.975 234.974 42.975 231.124V230.224C42.825 229.674 42.75 229.149 42.75 228.649C42.75 226.249 43.6 224.424 45.3 223.174C46.4 222.374 47.775 221.974 49.425 221.974C49.875 221.974 50.6 222.049 51.6 222.199C52.6 222.349 53.3 222.574 53.7 222.874C52.65 222.924 51.825 223.274 51.225 223.924C50.675 224.574 50.4 225.449 50.4 226.549C50.4 227.649 50.9 228.674 51.9 229.624C53.3 230.974 55.475 231.649 58.425 231.649C61.425 231.649 64.525 230.424 67.725 227.974L69.375 232.474ZM91.9553 227.299C89.9053 243.499 88.8803 252.124 88.8803 253.174C88.8803 255.174 89.6053 256.174 91.0553 256.174C92.3553 256.174 93.7553 255.299 95.2553 253.549C96.8053 251.749 98.0303 249.074 98.9303 245.524C100.58 247.324 101.58 248.724 101.93 249.724C100.78 254.574 98.9553 257.999 96.4553 259.999C93.9553 261.999 91.3803 262.999 88.7303 262.999C84.3803 262.999 81.4553 261.324 79.9553 257.974C77.3553 261.324 73.8803 262.999 69.5303 262.999C65.9303 262.999 63.1553 262.099 61.2053 260.299C59.2553 258.499 58.2803 256.149 58.2803 253.249C58.2803 252.549 58.4053 251.324 58.6553 249.574C59.8053 240.274 60.6803 232.874 61.2803 227.374C62.8303 226.824 64.2553 226.549 65.5553 226.549C66.8553 226.549 67.8303 226.599 68.4803 226.699C69.1303 226.799 69.7553 227.174 70.3553 227.824C70.9553 228.474 71.2553 229.399 71.2553 230.599L68.7803 249.724C68.6803 250.324 68.6303 250.874 68.6303 251.374C68.6303 254.324 69.9803 255.799 72.6803 255.799C75.1803 255.799 77.2553 254.574 78.9053 252.124C78.9053 251.574 78.9553 250.699 79.0553 249.499L81.5303 229.549C81.8803 228.699 82.6303 227.999 83.7803 227.449C84.9303 226.849 86.3553 226.549 88.0553 226.549C89.8053 226.549 91.1053 226.799 91.9553 227.299ZM113.468 210.424C113.468 210.724 112.793 216.099 111.443 226.549H122.468V232.324H110.693L110.468 234.199C116.318 239.099 119.243 244.449 119.243 250.249C119.243 254.799 118.068 258.074 115.718 260.074C113.418 262.074 110.643 263.074 107.393 263.074C104.143 263.074 101.768 262.224 100.268 260.524C98.768 258.774 98.018 256.674 98.018 254.224C98.018 253.674 98.068 253.074 98.168 252.424L100.493 232.474L100.193 232.324H94.118C94.068 231.824 94.043 231.024 94.043 229.924C94.043 228.774 94.268 227.649 94.718 226.549H101.168L103.568 206.149C104.618 205.749 106.018 205.549 107.768 205.549C111.568 205.549 113.468 207.174 113.468 210.424ZM114.218 250.174C114.218 246.724 112.718 243.324 109.718 239.974C108.818 247.424 108.368 251.724 108.368 252.874C108.368 255.124 109.093 256.249 110.543 256.249C111.593 256.249 112.468 255.774 113.168 254.824C113.868 253.824 114.218 252.274 114.218 250.174ZM135.199 284.899C132.349 284.899 129.899 284.024 127.849 282.274C125.799 280.574 124.774 278.074 124.774 274.774C124.774 270.724 126.824 266.774 130.924 262.924C128.024 262.674 125.699 261.724 123.949 260.074C122.199 258.424 121.324 256.099 121.324 253.099C121.324 251.699 121.499 249.599 121.849 246.799C122.199 243.999 122.574 240.974 122.974 237.724C123.374 234.474 123.799 231.024 124.249 227.374C125.799 226.824 127.224 226.549 128.524 226.549C129.824 226.549 130.799 226.599 131.449 226.699C132.099 226.799 132.724 227.174 133.324 227.824C133.924 228.474 134.224 229.399 134.224 230.599L131.749 249.724C131.649 250.524 131.599 251.074 131.599 251.374C131.599 254.324 132.949 255.799 135.649 255.799C138.099 255.799 140.099 254.649 141.649 252.349C141.799 251.199 142.174 247.899 142.774 242.449C143.374 236.949 143.874 232.674 144.274 229.624C144.724 228.674 145.649 227.924 147.049 227.374C148.499 226.824 149.674 226.549 150.574 226.549C152.174 226.549 153.624 226.749 154.924 227.149L151.399 254.824C157.249 255.874 160.749 259.899 161.899 266.899C161.699 267.849 160.749 269.349 159.049 271.399C158.049 265.149 155.299 261.349 150.799 259.999L149.599 269.374C149.049 273.874 147.624 277.574 145.324 280.474C143.024 283.424 139.649 284.899 135.199 284.899ZM130.624 273.349C130.624 274.999 131.024 276.224 131.824 277.024C132.624 277.824 133.674 278.224 134.974 278.224C136.324 278.224 137.349 277.674 138.049 276.574C138.749 275.474 139.299 273.274 139.699 269.974L140.674 261.724C134.124 265.124 130.774 268.999 130.624 273.349ZM180.149 254.224L181.949 237.499C181.949 236.149 181.599 235.024 180.899 234.124C180.199 233.224 179.024 232.774 177.374 232.774C175.774 232.774 174.399 233.499 173.249 234.949C172.149 236.349 171.449 238.124 171.149 240.274C169.349 253.974 168.399 261.424 168.299 262.624H158.174L162.299 227.299C164.399 226.749 165.999 226.474 167.099 226.474C170.449 226.474 172.199 227.699 172.349 230.149C174.799 227.749 177.724 226.549 181.124 226.549C184.574 226.549 187.274 227.399 189.224 229.099C191.174 230.799 192.149 232.949 192.149 235.549C192.149 236.249 191.999 237.574 191.699 239.524C190.549 247.124 189.974 251.549 189.974 252.799C189.974 255.099 190.749 256.249 192.299 256.249C195.699 256.249 198.274 252.699 200.024 245.599C201.724 247.399 202.749 248.824 203.099 249.874C200.449 258.674 195.849 263.074 189.299 263.074C186.199 263.074 183.899 262.124 182.399 260.224C180.899 258.324 180.149 256.324 180.149 254.224Z" fill="white"/>
</svg>
