<svg width="175" height="188" viewBox="0 0 175 188" fill="none" xmlns="http://www.w3.org/2000/svg">
<path fill-rule="evenodd" clip-rule="evenodd" d="M133.672 58.463C139.387 57.9943 149.418 72.8148 152.107 77.2793C157.491 86.217 160.273 95.1756 161.399 105.53C162.433 115.038 157.516 125.503 149.673 130.963C141.743 136.483 130.029 140.211 120.474 137.564C101.338 132.262 93.5944 108.952 91.8065 91.3033C91.4118 87.4057 91.4987 77.8228 93.5153 74.467C94.8806 72.1948 103.539 69.7086 106.41 68.679C110.003 67.3903 132.132 58.5908 133.673 58.4647L133.672 58.463ZM40.1482 58.236C40.943 58.1838 64.7273 67.1415 67.4178 68.2172C70.0588 69.2729 79.3044 72.2026 80.8018 73.6287C83.3932 76.0966 83.081 86.3187 82.9089 89.865C82.0558 107.44 73.9372 131.422 55.3157 137.263C45.7701 140.257 34.0175 136.909 25.905 131.47C16.7656 125.342 13.4185 117.333 13.6185 106.505C13.8924 91.7094 20.6118 77.9124 29.9008 66.6711C31.5679 64.6545 37.6281 58.4004 40.1482 58.236ZM87.4281 73.1166C85.9159 70.9843 85.9124 68.9625 83.3132 67.8346C81.4418 67.0224 78.5122 66.098 76.4921 65.371C67.4257 62.1083 58.4723 58.6299 49.3841 55.3402C43.5405 53.2254 41.5847 50.6305 35.9776 53.8898C22.1414 61.9318 10.1332 84.6552 8.02616 100.155C6.64698 110.301 8.37399 121.373 15.2612 129.318C17.7213 132.155 22.0641 136.102 25.4407 137.708C27.9034 138.878 30.0913 139.433 29.2139 142.413C28.7608 143.951 26.8581 147.565 26.5494 149.031C26.3859 149.806 21.8284 162.194 21.564 162.615C20.337 164.568 17.5448 175.051 16.1047 175.709C14.9516 176.236 4.06513 170.539 2.46681 171.364C2.1955 171.504 0.887641 173.883 0.743288 174.298C0.109352 176.122 1.3807 176.15 2.54596 176.906C3.81122 177.729 7.86875 178.626 9.40881 179.328C11.1793 180.134 14.2264 181.537 16.076 181.946C17.5447 182.27 21.224 184.249 22.6815 184.625C26.0172 185.485 34.6975 190.999 34.4593 183.913C34.3862 181.727 22.2058 179.174 22.1901 177.735C22.1727 176.122 26.2216 166.408 27.0303 164.003C28.4565 159.764 30.3922 154.649 32.1105 150.515C35.488 142.388 32.5801 141.875 41.3039 143.348C52.306 145.205 60.7115 142.966 69.3023 135.849C75.6712 130.573 81.1183 121.044 83.941 113.351C84.775 111.079 85.6472 108.609 86.1202 106.254C86.3655 105.032 86.8473 103.916 87.2151 102.732C88.0351 100.091 88.3212 103.987 88.3899 104.649C88.5943 106.606 92.1187 116.806 93.1822 118.426C94.3814 120.255 94.8953 122.496 96.4102 124.483C97.565 125.998 98.8425 128.219 100.174 130.004C102.404 132.994 106.578 137.123 109.824 138.923C115.206 141.908 117.247 142.85 123.495 143.821C126.477 144.284 128.947 144.37 131.9 143.646C132.529 143.491 139.533 142.183 139.684 142.169L153.116 178.108L144.344 181.453C143.554 181.604 140.749 182.721 140.343 183.349C139.947 183.961 141.424 186.963 141.717 187.308C143.241 189.103 156.272 182.696 158.869 182.05C161.61 181.368 165.054 179.469 167.445 178.964C168.793 178.679 175.488 176.569 174.281 174.689C173.169 172.958 173.987 171.356 171.721 171.329C169.302 171.301 169.243 172.248 167.327 172.731C165.443 173.204 159.946 175.689 158.7 175.643C157.625 174.471 150.696 155.338 149.513 152.221C143.173 135.508 143.601 143.173 154.787 134.035C169.465 122.046 169.608 102.358 162.793 85.9518C159.535 78.1071 156.14 71.9426 150.924 65.2111C147.551 60.8579 138.381 50.7123 132.336 52.8036C124.531 55.5037 116.371 58.7604 108.579 61.6718C104.614 63.1536 100.64 64.5658 96.6824 66.0789C92.9266 67.5137 90.8282 67.2207 88.8525 70.4773C88.4621 71.1217 88.0238 72.6131 87.429 73.1131L87.4281 73.1166Z" fill="white"/>
<path fill-rule="evenodd" clip-rule="evenodd" d="M150.09 92.0911C137.406 92.9477 125.095 98.34 113.745 103.867C109.654 105.859 100.446 109.892 102.717 115.633C104.627 120.462 109.155 126.178 113.549 128.972C124.996 136.247 139.34 133.03 149.184 124.474C154.237 120.083 156.059 114.73 157.22 108.388C157.818 105.121 156.933 101.102 156.224 97.8496C155.304 93.6303 154.794 91.7737 150.09 92.0911Z" fill="#FF8A8A"/>
<path fill-rule="evenodd" clip-rule="evenodd" d="M23.5041 92.0911C19.2718 92.2668 19.3396 95.2686 18.3448 98.9262C17.6874 101.344 17.6013 107.607 17.9283 110.12C18.6631 115.754 22.3128 121.789 26.779 125.274C36.7342 133.045 51.719 136.679 62.4838 128.24C65.9752 125.503 71.7632 118.656 72.6772 114.344C73.6433 109.787 63.5856 104.97 60.1072 103.381C50.112 98.8157 34.4341 91.6363 23.5032 92.0903L23.5041 92.0911Z" fill="#FF8A8A"/>
<path fill-rule="evenodd" clip-rule="evenodd" d="M127.8 21.7321C126.09 21.8721 116.727 32.0829 114.829 33.9595C112.735 36.0309 110.51 38.184 108.505 40.3171C107.451 41.4398 105.598 42.4232 105.959 44.032C106.128 44.7807 108.512 46.9451 109.335 46.9669C110.697 47.0025 120.432 36.4091 122.308 34.7578C123.941 33.3194 127.223 30.0376 128.63 28.3984C129.49 27.3966 131.4 26.3253 131 24.8C130.76 23.8835 128.769 21.6529 127.799 21.7321H127.8Z" fill="#FF8A8A"/>
<path fill-rule="evenodd" clip-rule="evenodd" d="M47.8884 22.1764C47.1832 22.3147 44.9892 24.6609 44.8866 25.3626C44.6987 26.6461 46.6205 28.0601 47.4814 28.9376C49.5502 31.0472 51.6564 33.1507 53.7608 35.2256C55.5565 36.9961 65.0916 47.5347 66.7865 47.1582C67.6352 46.9695 69.9057 44.9286 69.9188 44.0946C69.9431 42.5867 68.2491 41.4632 67.2282 40.4406C65.1421 38.3518 63.0011 36.2682 60.9463 34.1542C59.1818 32.3385 49.6302 21.8338 47.8875 22.1764H47.8884Z" fill="#FF8A8A"/>
<path fill-rule="evenodd" clip-rule="evenodd" d="M85.7776 0.264344C83.3367 0.665228 84.4185 6.02364 84.4185 7.96371L84.4202 26.5331C84.4741 30.8515 83.7097 31.0411 88.8265 30.9167C91.2465 30.8585 90.1935 24.9826 90.1935 23.2486L90.1943 4.68273C90.1813 0.506055 90.8822 -0.574838 85.7776 0.263453V0.264344Z" fill="#FF8A8A"/>
</svg>
